<svg width="31" height="44" viewBox="0 0 31 44" fill="none" xmlns="http://www.w3.org/2000/svg">
<path d="M14.5477 43.3209C14.0475 43.3127 13.6211 43.1613 13.2685 42.8666C12.916 42.572 12.6542 42.1885 12.4833 41.7163C11.8376 39.6836 11.0112 37.7743 10.004 35.9885C9.03265 34.2032 7.65538 32.1043 5.87226 29.6919C4.08913 27.2794 2.64366 24.9808 1.53586 22.7961C0.463793 20.612 -0.0470387 17.9857 0.00336883 14.9173C0.0727533 10.6938 1.57856 7.14378 4.52078 4.26733C7.49933 1.35536 11.0788 -0.0662846 15.2593 0.00239243C19.4398 0.0710695 22.9529 1.60923 25.7984 4.61687C28.6803 7.58901 30.0866 11.1869 30.0172 15.4104C29.9632 18.6954 29.2929 21.4286 28.0061 23.6101C26.7557 25.7561 25.309 27.8808 23.6662 29.9842C21.694 32.5516 20.1935 34.6935 19.1645 36.4098C18.1719 38.0906 17.3383 39.8823 16.6638 41.785C16.4768 42.2874 16.1844 42.6798 15.7866 42.9621C15.4252 43.209 15.0122 43.3286 14.5477 43.3209ZM14.9213 20.5787C16.422 20.6034 17.699 20.1008 18.7524 19.0709C19.8058 18.0411 20.345 16.7681 20.3699 15.2519C20.3948 13.7358 19.8977 12.4458 18.8787 11.3819C17.8598 10.318 16.5999 9.77372 15.0992 9.74906C13.5985 9.72441 12.3215 10.227 11.2681 11.2568C10.2147 12.2867 9.67557 13.5597 9.65066 15.0758C9.62576 16.592 10.1228 17.882 11.1418 18.9459C12.1608 20.0098 13.4206 20.554 14.9213 20.5787Z" fill="#4E5B8A"/>
</svg>
